# AST/ASF file generated using VICON BodyLanguage
# -----------------------------------------------
:version 1.10
:name VICON
:units
  mass 1.0
  length 0.45
  angle deg
:documentation
   .ast/.asf automatically generated from VICON data using
   VICON BodyBuilder and BodyLanguage model FoxedUp or BRILLIANT.MOD
:root
   order TX TY TZ RX RY RZ
   axis XYZ
   position 0 0 0  
   orientation 0 0 0 
:bonedata
  begin
     id 1 
     name lhipjoint
     direction 0.716248 -0.617586 0.324924 
     length 2.63557 
     axis 0 0 0  XYZ
  end
  begin
     id 2 
     name lfemur
     direction 0.34202 -0.939693 0  
     length 7.01235  
     axis 0 0 20  XYZ
    dof rx ry rz
    limits (-160.0 20.0)
           (-70.0 70.0)
           (-60.0 70.0)
  end
  begin
     id 3 
     name ltibia
     direction 0.34202 -0.939693 0   
     length 8.14348   
     axis 0 0 20   XYZ
    dof rx
    limits (-10.0 170.0)
  end
  begin
     id 4 
     name lfoot
     direction 0.0982064 -0.26982 0.95789   
     length 1.99077   
     axis -90 7.62852e-016 20   XYZ
    dof rx rz
    limits (-45.0 90.0)
           (-70.0 20.0)
  end
  begin
     id 5 
     name ltoes
     direction 1.53511e-011 -4.21891e-011 1   
     length 0.99735   
     axis -90 7.62852e-016 20   XYZ
    dof rx
    limits (-90.0 20.0)
  end
  begin
     id 6 
     name rhipjoint
     direction -0.687828 -0.642391 0.337975   
     length 2.5338  
     axis 0 0 0  XYZ 
  end
  begin
     id 7 
     name rfemur
     direction -0.34202 -0.939693 0   
     length 6.90199   
     axis 0 0 -20   XYZ
    dof rx ry rz
    limits (-160.0 20.0)
           (-70.0 70.0)
           (-70.0 60.0)
  end
  begin
     id 8 
     name rtibia
     direction -0.34202 -0.939693 0   
     length 8.07725   
     axis 0 0 -20   XYZ
    dof rx
    limits (-10.0 170.0)
 end
 begin
     id 9 
     name rfoot
     direction -0.0912384 -0.250675 0.963762   
     length 2.11621  
     axis -90 -7.62852e-016 -20   XYZ
    dof rx rz
    limits (-45.0 90.0)
           (-20.0 70.0)
  end
  begin
     id 10 
     name rtoes
     direction -1.5359e-011 -4.21894e-011 1   
     length 1.06031   
     axis -90 -7.62852e-016 -20   XYZ
    dof rx
    limits (-90.0 20.0)
  end
  begin
     id 11 
     name lowerback
     direction -0.0403572 0.987953 -0.149396   
     length 2.05637   
     axis 0 0 0   XYZ
    dof rx ry rz
    limits (-20.0 45.0)
           (-30.0 30.0)
           (-30.0 30.0)
  end
  begin
     id 12 
     name upperback
     direction -0.00512151 0.997598 0.0690792   
     length 2.01086   
     axis 0 0 0   XYZ
    dof rx ry rz
    limits (-20.0 45.0)
           (-30.0 30.0)
           (-30.0 30.0)
  end
  begin
     id 13 
     name thorax
     direction 0.0136133 0.989392 0.14463   
     length 2.09035   
     axis 0 0 0   XYZ
    dof rx ry rz
    limits (-20.0 45.0)
           (-30.0 30.0)
           (-30.0 30.0)
  end
  begin
     id 14 
     name lowerneck
     direction 0.0250714 0.992811 0.11704   
     length 1.70806   
     axis 0 0 0   XYZ
    dof rx ry rz
    limits (-20.0 45.0)
           (-30.0 30.0)
           (-30.0 30.0)
  end
  begin
     id 15 
     name upperneck
     direction -0.0519205 0.998394 -0.0226787   
     length 1.6689   
     axis 0 0 0   XYZ
    dof rx ry rz
    limits (-20.0 45.0)
           (-30.0 30.0)
           (-30.0 30.0)
  end
  begin
     id 16
     name head
     direction -0.0201693 0.999547 -0.0223192  
     length 1.83412  
     axis 0 0 0   XYZ
    dof rx ry rz
    limits (-20.0 45.0)
           (-30.0 30.0)
           (-30.0 30.0)
  end
  begin
     id 17 
     name lclavicle
     direction 0.89585 0.444077 -0.0157448  
     length 3.39587  
     axis 0 0 0   XYZ
    dof ry rz
    limits (-20.0 10.0)
           (0.0 20.0)
  end
  begin
     id 18 
     name lhumerus
     direction 1 -4.48956e-011 1.99132e-028   
     length 5.79199   
     axis 180 -30 -90   XYZ
    dof rx ry rz
    limits (-60.0 90.0)
           (-90.0 90.0)
           (-90.0 90.0)
  end
  begin
     id 19
     name lradius
     direction 1 -4.48974e-011 8.72912e-028   
     length 3.49908   
     axis 180 -30 -90   XYZ
    dof rx
    limits (-10.0 170.0)
  end
  begin
     id 20
     name lwrist
     direction 1 -4.48994e-011 4.76442e-027   
     length 1.74954   
     axis -3.27502e-015 90 90   XYZ
    dof ry
    limits (-180.0 0.0)
 end
  begin
     id 21 
     name lhand
     direction 1 -4.48945e-011 9.531e-027   
     length 0.593861   
     axis -6.08098e-015 90 90   XYZ
    dof rx rz
    limits (-90.0 90.0)
           (-45.0 45.0)
  end
  begin
     id 22 
     name lfingers
     direction 1 -4.48945e-011 1.9062e-026   
     length 0.478786   
     axis -1.21619e-014 90 90   XYZ
    dof rx
    limits (0.0 90.0)
  end
  begin
     id 23
     name lthumb
     direction 0.707107 -6.34904e-011 0.707107   
     length 0.687444   
     axis -90 45 -9.86923e-015   XYZ
    dof rx rz
    limits (-45.0 45.0)
           (-45.0 45.0)
  end
  begin
     id 24 
     name rclavicle
     direction -0.940466 0.338394 0.0318182   
     length 3.51226  
     axis 0 0 0   XYZ 
    dof ry rz
    limits (-10.0 20.0)
           (-20.0 0.0)
  end
  begin
     id 25 
     name rhumerus
     direction -1 -4.48976e-011 2.0905e-027  
     length 5.73799   
     axis 180 30 90   XYZ
    dof rx ry rz
    limits (-90.0 60.0)
           (-90.0 90.0)
           (-90.0 90.0)
  end
  begin
     id 26 
     name rradius
     direction -1 -4.48968e-011 -9.39692e-029   
     length 3.57916   
     axis 180 30 90   XYZ
    dof rx
    limits (-10.0 170.0)
  end
  begin
     id 27 
     name rwrist
     direction -1 -4.48959e-011 4.7652e-027   
     length 1.78958   
     axis -3.27502e-015 -90 -90   XYZ
    dof ry
    limits (-180.0 0.0)
  end
  begin
     id 28
     name rhand
     direction -1 -4.49042e-011 9.5267e-027   
     length 0.615577   
     axis -6.08098e-015 -90 -90   XYZ
    dof rx rz
    limits (-90.0 90.0)
           (-45.0 45.0)
  end
  begin
     id 29
     name rfingers
     direction -1 -4.48935e-011 1.90629e-026   
     length 0.496294   
     axis -1.21619e-014 -90 -90   XYZ
    dof rx
    limits (0.0 90.0)
  end
  begin
     id 30
     name rthumb
     direction -0.707107 -6.34977e-011 0.707107   
     length 0.712582   
     axis -90 -45 9.86923e-015   XYZ
    dof rx rz
    limits (-45.0 45.0)
           (-45.0 45.0)
  end
:hierarchy
  begin
    root lhipjoint rhipjoint lowerback
    lhipjoint lfemur
    lfemur ltibia
    ltibia lfoot
    lfoot ltoes
    rhipjoint rfemur
    rfemur rtibia
    rtibia rfoot
    rfoot rtoes
    lowerback upperback
    upperback thorax
    thorax lowerneck lclavicle rclavicle
    lowerneck upperneck
    upperneck head
    lclavicle lhumerus
    lhumerus lradius
    lradius lwrist
    lwrist lhand lthumb
    lhand lfingers
    rclavicle rhumerus
    rhumerus rradius
    rradius rwrist
    rwrist rhand rthumb
    rhand rfingers
  end

#!OML:ASF H:\Terrain\Patient Classification 1\PaulMetrics\March17Take5\PaulMetrics.ASF
:FULLY-SPECIFIED
:DEGREES
1044
root 7.66462 16.6894 -26.2163 7.08025 -18.1936 5.08078
lowerback 4.73097 0.917366 -1.64437
upperback -3.24591 1.06989 -0.596704
thorax -6.04794 0.582243 0.195626
lowerneck -5.55707 9.0144 2.51942
upperneck 2.37082 12.1065 -5.87295
head 2.27002 5.92004 -1.81583
rclavicle 7.20594e-014 -3.18055e-015
rhumerus -49.4884 15.2006 -92.6959
rradius 37.4862
rwrist -12.8084
rhand -23.7855 -35.0029
rfingers 7.12502
rthumb 2.68453 295.034
lclavicle 7.20594e-014 -3.18055e-015
lhumerus -40.7751 -8.36206 79.4918
lradius 38.4012
lwrist 18.3882
lhand -9.24945 -21.1773
lfingers 7.12502
lthumb 16.7063 8.1238
rfemur -12.4818 5.2849 25.2675
rtibia 30.8445
rfoot -33.0087 -23.3117
rtoes 10.8098
lfemur -35.1676 -1.18831 -22.475
ltibia 50.2043
lfoot -18.1507 3.84997
ltoes -5.14164
1045
root 7.65377 16.6726 -26.1797 7.20461 -17.9457 4.90594
lowerback 4.54017 0.933219 -1.46709
upperback -3.14831 1.10615 -0.658504
thorax -5.83113 0.590379 0.03323
lowerneck -5.47023 8.98698 2.77284
upperneck 2.01353 12.0421 -6.02624
head 2.16342 5.89416 -1.92123
rclavicle 4.93483e-014 5.96354e-015
rhumerus -49.3047 15.5203 -93.1237
rradius 37.5525
rwrist -13.398
rhand -24.4343 -35.579
rfingers 7.12502
rthumb 2.05792 294.451
lclavicle 4.93483e-014 5.96354e-015
lhumerus -40.9542 -8.05346 79.2625
lradius 38.0642
lwrist 18.4043
lhand -9.18077 -21.1985
lfingers 7.12502
lthumb 16.7724 8.09707
rfemur -12.3224 5.22307 25.5033
rtibia 30.6616
rfoot -33.0663 -23.51
rtoes 10.5802
lfemur -35.5328 -1.44271 -22.2416
ltibia 49.8883
lfoot -18.2887 2.95508
ltoes -3.30941
1046
root 7.64187 16.6641 -26.1416 7.32673 -17.7522 4.61325
lowerback 4.50175 1.01114 -1.19048
upperback -3.10983 1.23015 -0.68318
thorax -5.76322 0.639896 -0.157879
lowerneck -5.46413 8.95122 2.9344
upperneck 1.75592 11.9708 -6.04742
head 2.08703 5.8637 -1.96397
rclavicle -1.03617e-014 1.86858e-014
rhumerus -49.0267 15.4648 -93.2305
rradius 37.4266
rwrist -13.3229
rhand -24.4351 -36.5744
rfingers 7.12502
rthumb 2.05715 293.456
lclavicle -1.03617e-014 1.86858e-014
lhumerus -41.2398 -7.91138 79.16
lradius 37.6966
lwrist 18.3572
lhand -9.30187 -21.6068
lfingers 7.12502
lthumb 16.6558 7.6986
rfemur -12.0803 5.24008 25.8566
rtibia 30.4097
rfoot -33.0291 -23.8085
rtoes 9.76831
lfemur -35.9635 -1.34748 -22.0586
ltibia 49.6103
lfoot -17.8574 2.62227
ltoes -5.99908
1047
root 7.62774 16.6686 -26.0997 7.42563 -17.6861 4.49589
lowerback 4.452 1.05013 -1.16504
upperback -3.08733 1.2876 -0.640172
thorax -5.71188 0.668157 -0.131566
lowerneck -5.52209 8.88601 2.35787
upperneck 1.65648 11.9009 -5.69788
head 1.99295 5.83267 -1.76074
rclavicle 2.41026e-014 6.36111e-015
rhumerus -48.708 15.7703 -93.2532
rradius 37.301
rwrist -12.701
rhand -24.1551 -37.412
rfingers 7.12502
rthumb 2.32758 292.621
lclavicle 2.41026e-014 6.36111e-015
lhumerus -41.6764 -7.38808 79.099
lradius 37.4717
lwrist 18.2466
lhand -9.37508 -21.6644
lfingers 7.12502
lthumb 16.5854 7.64687
rfemur -11.7845 5.30516 25.9905
rtibia 30.0709
rfoot -32.9266 -23.9867
rtoes 9.67579
lfemur -36.4981 -1.0961 -22.1296
ltibia 49.3499
lfoot -17.7533 2.69664
ltoes -10.391
1048
root 7.61768 16.6659 -26.0537 7.41658 -17.6476 4.25202
lowerback 4.57897 1.05885 -1.05935
upperback -3.05016 1.31255 -0.502999
thorax -5.74638 0.679283 -0.0528532
lowerneck -5.62297 8.87622 1.51896
upperneck 1.70909 11.9255 -5.20618
head 1.9323 5.84694 -1.463
rclavicle -8.94531e-015 2.78299e-015
rhumerus -48.5097 16.1555 -93.2451
rradius 37.1858
rwrist -11.9715
rhand -23.8676 -37.223
rfingers 7.12502
rthumb 2.60527 292.813
lclavicle -8.94531e-015 2.78299e-015
lhumerus -42.1339 -6.38971 78.8834
lradius 37.3084
lwrist 17.7966
lhand -9.14508 -21.0499
lfingers 7.12502
lthumb 16.8068 8.24274
rfemur -11.3133 5.2604 26.2408
rtibia 29.6727
rfoot -32.7646 -24.0841
rtoes 9.69296
lfemur -36.8546 -1.02686 -21.9682
ltibia 49.0667
lfoot -17.7709 2.56721
ltoes -10.5359
1049
root 7.60877 16.6642 -26.007 7.49207 -17.478 4.02334
lowerback 4.61505 1.13022 -0.775738
upperback -3.07424 1.42528 -0.549293
thorax -5.78476 0.722898 -0.271687
lowerneck -5.44783 8.86385 1.65269
upperneck 1.53864 11.8964 -5.30107
head 1.86099 5.83715 -1.5275
rclavicle 1.62755e-014 -9.93923e-015
rhumerus -48.3681 16.0311 -93.4021
rradius 36.9796
rwrist -12.1871
rhand -24.3108 -36.3389
rfingers 7.12502
rthumb 2.17722 293.692
lclavicle 1.62755e-014 -9.93923e-015
lhumerus -42.4689 -5.99783 78.6173
lradius 36.8664
lwrist 17.5553
lhand -8.90121 -21.0459
lfingers 7.12502
lthumb 17.0415 8.22665
rfemur -10.9423 5.17539 26.4919
rtibia 29.2942
rfoot -32.8266 -24.0886
rtoes 10.077
lfemur -37.2476 -1.11248 -21.7736
ltibia 48.7518
lfoot -17.7311 2.30125
ltoes -8.82016
1050
root 7.59396 16.6681 -25.9659 7.74078 -17.1747 4.2043
lowerback 4.4641 1.18276 -0.907843
upperback -3.20594 1.47679 -0.735127
thorax -5.83562 0.749769 -0.394195
lowerneck -5.58496 8.7995 1.89977
upperneck 1.70543 11.8031 -5.35432
head 1.95784 5.7862 -1.57841
rclavicle -7.52151e-014 5.1684e-015
rhumerus -48.336 16.0926 -93.845
rradius 37.0158
rwrist -13.4984
rhand -24.76 -35.8099
rfingers 7.12502
rthumb 1.74338 294.218
lclavicle -7.52151e-014 5.1684e-015
lhumerus -42.7681 -5.96741 78.4622
lradius 36.2666
lwrist 17.676
lhand -8.84275 -21.748
lfingers 7.12502
lthumb 17.0978 7.51969
rfemur -10.9377 5.05782 26.3471
rtibia 29.0068
rfoot -33.1182 -24.0139
rtoes 10.2922
lfemur -38.0027 -1.26317 -22.0293
ltibia 48.3576
lfoot -17.5978 2.43447
ltoes -10.436
1051
root 7.57391 16.6712 -25.931 7.9691 -16.7978 4.32694
lowerback 4.48225 1.20586 -1.22397
upperback -3.32969 1.48157 -0.768756
thorax -5.98418 0.764627 -0.255217
lowerneck -5.98664 8.72049 1.63696
upperneck 2.07426 11.7174 -5.04892
head 2.10647 5.7358 -1.41761
rclavicle 5.59082e-015 -5.56597e-015
rhumerus -48.0748 16.0975 -93.8826
rradius 36.9794
rwrist -13.472
rhand -24.4272 -36.2772
rfingers 7.12502
rthumb 2.0648 293.753
lclavicle 5.59082e-015 -5.56597e-015
lhumerus -43.0585 -5.42703 78.253
lradius 35.8293
lwrist 17.2993
lhand -8.58091 -21.7842
lfingers 7.12502
lthumb 17.3498 7.4614
rfemur -10.9382 4.97325 26.3132
rtibia 28.8018
rfoot -33.3925 -24.1736
rtoes 9.99875
lfemur -38.7803 -1.4173 -22.1904
ltibia 47.8937
lfoot -17.3654 2.51247
ltoes -11.4381
1052
root 7.55635 16.6712 -25.8974 8.07701 -16.331 4.40626
lowerback 4.68264 1.18121 -1.52537
upperback -3.40986 1.422 -0.759457
thorax -6.19191 0.748709 -0.0771367
lowerneck -6.09525 8.67418 1.43137
upperneck 1.97882 11.658 -4.88057
head 2.06547 5.70845 -1.33174
rclavicle 3.62285e-014 7.15625e-015
rhumerus -47.6063 15.86 -93.5884
rradius 36.7833
rwrist -11.9886
rhand -24.1934 -36.9833
rfingers 7.12502
rthumb 2.29059 293.049
lclavicle 3.62285e-014 7.15625e-015
lhumerus -43.3562 -4.85357 78.0404
lradius 35.4441
lwrist 16.9181
lhand -8.4564 -21.6675
lfingers 7.12502
lthumb 17.4696 7.56752
rfemur -10.7929 4.77644 26.3462
rtibia 28.5739
rfoot -33.5431 -24.4495
rtoes 9.88265
lfemur -39.3523 -1.6301 -22.2648
ltibia 47.405
lfoot -17.2684 2.14179
ltoes -10.2988
1053
root 7.53949 16.6749 -25.8614 8.19007 -15.8482 4.71193
lowerback 4.75289 1.07646 -1.9928
upperback -3.4703 1.24065 -0.812794
thorax -6.30433 0.678742 0.144895
lowerneck -5.92606 8.57722 1.37965
upperneck 1.56443 11.5186 -4.99946
head 1.89973 5.64544 -1.38375
rclavicle 9.19379e-016 2.78299e-015
rhumerus -47.4672 16.0939 -93.6492
rradius 36.9946
rwrist -11.4764
rhand -24.421 -37.2287
rfingers 7.12502
rthumb 2.07079 292.802
lclavicle 9.19379e-016 2.78299e-015
lhumerus -43.6331 -4.38618 77.8287
lradius 34.9751
lwrist 16.5503
lhand -8.34205 -21.7828
lfingers 7.12502
lthumb 17.5797 7.44242
rfemur -10.6315 4.42998 26.1305
rtibia 28.2113
rfoot -33.6305 -24.5955
rtoes 9.68392
lfemur -39.9878 -1.70131 -22.6865
ltibia 46.9493
lfoot -17.0082 2.03531
ltoes -12.1594
1054
root 7.51975 16.6857 -25.822 8.43163 -15.3828 4.72039
lowerback 4.69112 1.01034 -2.12721
upperback -3.53796 1.14145 -0.829032
thorax -6.34126 0.635861 0.213588
lowerneck -5.59828 8.43737 1.46445
upperneck 1.17929 11.3166 -5.19809
head 1.72943 5.55278 -1.49124
rclavicle -8.27441e-015 -9.54166e-015
rhumerus -47.5632 16.4145 -93.8767
rradius 37.4255
rwrist -11.8051
rhand -24.6186 -37.4506
rfingers 7.12502
rthumb 1.87996 292.578
lclavicle -8.27441e-015 -9.54166e-015
lhumerus -43.8819 -3.9114 77.5581
lradius 34.4771
lwrist 16.1844
lhand -7.91487 -21.9115
lfingers 7.12502
lthumb 17.9907 7.27637
rfemur -10.4363 4.14736 26.2423
rtibia 27.7286
rfoot -33.5416 -24.9674
rtoes 8.60748
lfemur -40.7603 -1.63819 -22.8435
ltibia 46.5616
lfoot -16.4968 2.20572
ltoes -14.8701
